<svg xmlns="http://www.w3.org/2000/svg" width="18" height="19" viewBox="0 0 18 19"><defs><style>.a,.d{fill:none;}.a{stroke:#ffa840;stroke-linecap:round;stroke-linejoin:round;stroke-width:1.5px;}.b{fill:#ffa840;}.c{stroke:none;}</style></defs><g transform="translate(-1252 -19)"><g class="a" transform="translate(1252 29)"><path class="c" d="M6,0h6a6,6,0,0,1,6,6V9a0,0,0,0,1,0,0H0A0,0,0,0,1,0,9V6A6,6,0,0,1,6,0Z"/><path class="d" d="M6,.75h6A5.25,5.25,0,0,1,17.25,6V7.5a.75.75,0,0,1-.75.75H1.5A.75.75,0,0,1,.75,7.5V6A5.25,5.25,0,0,1,6,.75Z"/></g><path class="b" d="M30.837,10.834a4.477,4.477,0,1,0,0-8.954h0a4.477,4.477,0,0,0,.01,8.954ZM27.791,6.361a3.043,3.043,0,0,1,3.036-3.043h0a3.04,3.04,0,1,1-3.036,3.044Z" transform="translate(1230.1 17.12)"/></g></svg>