<svg id="Layer_1" data-name="Layer 1" xmlns="http://www.w3.org/2000/svg" viewBox="0 0 1112.85 784.05"><defs><style>.cls-1{fill:#fff;}</style></defs><path class="cls-1" d="M1089.6,122.43a139.86,139.86,0,0,0-98.39-99C904.42,0,556.43,0,556.43,0s-348,0-434.79,23.4a139.86,139.86,0,0,0-98.39,99C0,209.78,0,392,0,392S0,574.27,23.25,661.62a139.84,139.84,0,0,0,98.39,99c86.79,23.4,434.79,23.4,434.79,23.4s348,0,434.78-23.4a139.84,139.84,0,0,0,98.39-99c23.25-87.35,23.25-269.59,23.25-269.59S1112.85,209.78,1089.6,122.43Zm-647,435.06V226.56L733.47,392Z"/></svg>