<?xml version="1.0" encoding="utf-8"?>
<!-- Generator: Adobe Illustrator 25.0.1, SVG Export Plug-In . SVG Version: 6.00 Build 0)  -->
<svg version="1.1" id="Layer_1" xmlns="http://www.w3.org/2000/svg" xmlns:xlink="http://www.w3.org/1999/xlink" x="0px" y="0px"
	 viewBox="0 0 120 20.6" style="enable-background:new 0 0 120 20.6;" xml:space="preserve">
<style type="text/css">
	.st0{fill:#FFFFFF;}
	.st1{fill:#FF7600;}
</style>
<g id="Layer_2_1_">
	<g id="Layer_1-2">
		<path class="st0" d="M15.9,2c-0.4,0.2-0.6,0.5-0.7,0.9l-1.9,8.5c-0.1,0.3-0.1,0.6-0.1,0.9c-0.1,1.9,0.8,2.9,2.6,2.9
			c1.8,0,3.3-1.1,3.8-2.9l0,0c0.1-0.3,0.2-0.6,0.2-0.9c0,0,0,0,0-0.1l2.4-10.9C22.6-1,16.5,1.6,15.9,2 M12.4,20.4
			c0.3,0,0.3,0.1,0.1,0.2c-1.7,0.1-5.7,0.3-8.2-0.5l0,0c-3.7-1.1-5-4.1-3.9-9.2L2.1,3c0.1-0.4,0.3-0.8,0.7-1c0.6-0.4,6.7-3,6.3-1.5
			L6.8,11.4c-0.1,0.3-0.1,0.6-0.1,0.9l0,0C6.1,16.5,7.4,19,10.7,20h0.1l0.4,0.1C11.6,20.2,11.9,20.2,12.4,20.4"/>
		<path class="st1" d="M32.4,15.3h-3.5V0h1.8c1.4,0,1.8,0.6,1.8,1.8V15.3z"/>
		<path class="st1" d="M44.2,0c3.5,0,5.3,2.1,5.3,6.4v8.9h-3.8v-8c0-2.7-1-4-2.9-4c-1.2-0.1-2.3,0.5-3,1.5c-0.5,1-0.8,2-0.7,3.1v7.4
			h-3.6V0h1.8c1.3,0,1.8,0.6,1.8,1.8v1.3C39.9,1.1,42-0.1,44.2,0"/>
		<path class="st1" d="M64,14.4c-1.4,0.6-2.8,0.9-4.3,0.9c-2.1,0.1-4.2-0.7-5.7-2.1c-1.4-1.4-2.2-3.4-2.2-5.4V7.5
			c-0.1-2,0.7-4,2.2-5.4c1.5-1.5,3.5-2.3,5.7-2.2c1.4,0,2.7,0.3,4,0.7l-0.3,2.9c-0.9-0.4-1.9-0.6-2.9-0.7C59.2,2.9,58,3.4,57,4.3
			c-0.9,0.9-1.3,2.1-1.3,3.4c-0.1,1.3,0.4,2.5,1.3,3.4c0.9,0.9,2.1,1.4,3.4,1.3c1.1-0.1,2.2-0.3,3.2-0.8L64,14.4z"/>
		<path class="st1" d="M86.8,15.3h-3.5V0h1.7c1.6,0,1.9,0.8,1.9,1.7v1.4c1-1.9,3-3.1,5.1-3C94,0,95.8,1.3,96.5,3.2
			c1-2,3-3.3,5.2-3.2c1.6-0.1,3.1,0.7,3.9,2c0.8,1.3,1.1,2.9,1.1,4.4v8.9h-3.8V7.2c0-2.6-0.9-4-2.6-4c-1.1,0-2.1,0.5-2.6,1.5
			c-0.5,1-0.8,2-0.7,3.1v7.5h-3.8V7.2c0-2.6-0.9-4-2.6-4c-1.2-0.1-2.3,0.5-3,1.5c-0.5,1-0.8,2-0.7,3.1L86.8,15.3z"/>
		<path class="st1" d="M120,7.5v1.2h-10.2c0.1,1.1,0.6,2.2,1.4,2.9c1,0.7,2.1,1.1,3.3,1c1.5,0,3-0.3,4.3-1v2.9
			c-1.6,0.6-3.3,0.9-4.9,0.9c-2.1,0.1-4.2-0.6-5.7-2.1c-1.4-1.6-2.2-3.7-2.1-5.8c-0.1-2,0.6-3.9,2-5.3c1.4-1.4,3.3-2.1,5.2-2
			c1.9-0.1,3.7,0.6,4.9,2C119.5,3.6,120.1,5.5,120,7.5 M116.6,6.4c0-1-0.4-2.1-1-2.9c-0.6-0.7-1.4-1-2.3-1c-0.9,0-1.8,0.3-2.4,1
			c-0.7,0.8-1.1,1.8-1.2,2.9H116.6z"/>
		<path class="st1" d="M73.2,0c2.1-0.1,4.1,0.6,5.7,2c1.4,1.5,2.2,3.5,2.1,5.6c0.1,2.1-0.6,4.1-2.1,5.6c-1.5,1.4-3.6,2.1-5.7,2
			c-2.1,0.1-4.1-0.6-5.7-2c-1.4-1.5-2.2-3.5-2.1-5.6c-0.1-2.1,0.6-4.1,2.1-5.6C69.1,0.6,71.1-0.1,73.2,0 M73.2,2.7
			c-1.1,0-2.1,0.5-2.7,1.3c-0.8,1-1.1,2.3-1.1,3.6c-0.1,1.3,0.3,2.5,1.1,3.5c1.2,1.5,3.4,1.8,5,0.6c0.2-0.2,0.4-0.4,0.6-0.6
			c0.7-1,1.1-2.3,1.1-3.5c0.1-1.3-0.3-2.5-1-3.6C75.3,3.2,74.3,2.7,73.2,2.7"/>
	</g>
</g>
</svg>
